<?xml version="1.0" encoding="iso-8859-1"?>
<!-- Generator: Adobe Illustrator 19.0.0, SVG Export Plug-In . SVG Version: 6.00 Build 0)  -->
<svg version="1.1" id="Capa_1" xmlns="http://www.w3.org/2000/svg" xmlns:xlink="http://www.w3.org/1999/xlink" x="0px" y="0px"
	 viewBox="0 0 423.706 423.706" style="enable-background:new 0 0 423.706 423.706;" xml:space="preserve">
<path style="fill:#1185E0;" d="M211.853,213.159c-58.514,0-106.58-48.065-106.58-106.58S153.339,0,211.853,0
	s106.58,48.065,106.58,106.58S270.367,213.159,211.853,213.159z M211.853,31.347c-41.273,0-75.233,33.959-75.233,75.233
	s33.959,75.233,75.233,75.233s75.233-33.959,75.233-75.233S253.127,31.347,211.853,31.347z"/>
<path style="fill:#4DCFE0;" d="M379.037,423.706H347.69c0-80.457-58.514-141.584-135.837-141.584S76.016,343.249,76.016,423.706
	H44.669c0-97.176,73.665-172.931,167.184-172.931S379.037,326.531,379.037,423.706z"/>
<g>
</g>
<g>
</g>
<g>
</g>
<g>
</g>
<g>
</g>
<g>
</g>
<g>
</g>
<g>
</g>
<g>
</g>
<g>
</g>
<g>
</g>
<g>
</g>
<g>
</g>
<g>
</g>
<g>
</g>
</svg>
